<?xml version="1.0" encoding="UTF-8"?>
<!-- Generator: $$$/GeneralStr/196=Adobe Illustrator 27.6.0, SVG Export Plug-In . SVG Version: 6.00 Build 0)  -->
<svg xmlns="http://www.w3.org/2000/svg" xmlns:xlink="http://www.w3.org/1999/xlink" version="1.1" id="Groupe_2" x="0px" y="0px" viewBox="0 0 481.5 295" style="enable-background:new 0 0 481.5 295;" xml:space="preserve">
<style type="text/css">
	.st0{clip-path:url(#SVGID_00000129884708585602611710000005098787794231219124_);}
	.st1{fill:#183680;}
</style>
<g>
	<defs>
		<rect id="SVGID_1_" width="481.5" height="295"></rect>
	</defs>
	<clipPath id="SVGID_00000155830276013249462860000015397743601085648825_">
		<use xlink:href="#SVGID_1_" style="overflow:visible;"></use>
	</clipPath>
	<g id="Groupe_1" style="clip-path:url(#SVGID_00000155830276013249462860000015397743601085648825_);">
		<path id="Tracé_1" class="st1" d="M107.2,95.4c60.2,0,107.2,42.1,107.2,99.8S167.4,295,107.2,295S0,252.8,0,195.2    S46.9,95.4,107.2,95.4 M107.2,292.4c33.3,0,33.6-38.8,33.6-97.2S140.5,98,107.2,98s-33.6,38.8-33.6,97.2S73.9,292.4,107.2,292.4"></path>
		<path id="Tracé_2" class="st1" d="M305.7,144.2c7-26.6,32.9-48.8,66.5-48.8c32.5,0,58,18.1,58,54.3v139.7h11v2.6h-99.3v-2.6h20    V147.9c0-14.4-0.7-37-20-37c-20.3,0-35.9,27.7-35.9,49.5v129h20.3v2.6H205.5v-2.6h32.2V11.8l-37,4.8l-0.4-2.6L306.8,0L305.7,144.2    z"></path>
		<path id="Tracé_3" class="st1" d="M481.5,279.2c0,7.6-6.2,13.8-13.8,13.8c-7.6,0-13.8-6.2-13.8-13.8c0-7.6,6.2-13.8,13.8-13.8    S481.5,271.6,481.5,279.2L481.5,279.2"></path>
	</g>
</g>
</svg>
